<svg width="214" height="31" viewBox="0 0 214 31" fill="none" xmlns="http://www.w3.org/2000/svg">
<path d="M1.49328 1.9049H9.22102V12.0219L17.2474 1.9049H26.3564L16.3141 14.5605L27.0657 28H17.9567L9.22102 17.099V28H1.49328V1.9049ZM28.9367 1.9049H36.6644V28H28.9367V1.9049ZM39.2818 1.9049H46.7855L54.9239 15.5684V1.9049H62.6516V28H55.1852L47.0095 14.3365V28H39.2818V1.9049ZM78.8558 28.56C75.9688 28.56 73.4426 28.0124 71.2774 26.9174C69.1121 25.8223 67.4446 24.2544 66.2749 22.2135C65.1051 20.1727 64.5203 17.7586 64.5203 14.9711C64.5203 12.1837 65.1051 9.76952 66.2749 7.7287C67.4446 5.66299 69.1121 4.0826 71.2774 2.98753C73.4426 1.89245 75.9688 1.34492 78.8558 1.34492C82.7383 1.34492 85.7747 2.06667 87.9648 3.51018V10.6406C86.8697 9.81929 85.6378 9.22198 84.2689 8.84866C82.9001 8.47534 81.3197 8.28868 79.5278 8.28868C77.1883 8.28868 75.4088 8.87355 74.1893 10.0433C72.9947 11.213 72.3973 12.8556 72.3973 14.9711C72.3973 17.1861 72.9698 18.8661 74.1146 20.0109C75.2844 21.1309 76.9643 21.6909 79.1544 21.6909C80.2246 21.6909 81.0957 21.5416 81.7677 21.2429V17.9203H78.1838V13.0298H88.8234V26.0961C86.1853 27.7387 82.8628 28.56 78.8558 28.56Z" fill="white"/>
<path d="M102.29 1.9049H110.018V12.0219L118.044 1.9049H127.153L117.111 14.5605L127.862 28H118.753L110.018 17.099V28H102.29V1.9049ZM139.562 28.56C136.924 28.56 134.522 27.9876 132.357 26.8427C130.216 25.6979 128.524 24.105 127.28 22.0642C126.06 19.9985 125.45 17.6341 125.45 14.9711C125.45 12.3081 126.06 9.94373 127.28 7.87803C128.524 5.81232 130.216 4.20704 132.357 3.06219C134.522 1.91734 136.924 1.34492 139.562 1.34492C142.2 1.34492 144.577 1.91734 146.692 3.06219C148.833 4.20704 150.513 5.81232 151.732 7.87803C152.976 9.94373 153.599 12.3081 153.599 14.9711C153.599 17.6341 152.976 19.9985 151.732 22.0642C150.513 24.105 148.833 25.6979 146.692 26.8427C144.577 27.9876 142.2 28.56 139.562 28.56ZM139.562 21.3176C140.707 21.3176 141.739 21.0687 142.66 20.5709C143.606 20.0483 144.353 19.3141 144.9 18.3683C145.448 17.3977 145.722 16.2653 145.722 14.9711C145.722 13.0547 145.137 11.5241 143.967 10.3793C142.797 9.23442 141.329 8.662 139.562 8.662C137.77 8.662 136.277 9.23442 135.082 10.3793C133.912 11.5241 133.327 13.0547 133.327 14.9711C133.327 16.2653 133.601 17.3977 134.149 18.3683C134.696 19.3141 135.443 20.0483 136.389 20.5709C137.334 21.0687 138.392 21.3176 139.562 21.3176ZM155.463 1.9049H162.967L171.105 15.5684V1.9049H178.833V28H171.367L163.191 14.3365V28H155.463V1.9049ZM195.037 28.56C192.15 28.56 189.624 28.0124 187.459 26.9174C185.294 25.8223 183.626 24.2544 182.456 22.2135C181.287 20.1727 180.702 17.7586 180.702 14.9711C180.702 12.1837 181.287 9.76952 182.456 7.7287C183.626 5.66299 185.294 4.0826 187.459 2.98753C189.624 1.89245 192.15 1.34492 195.037 1.34492C198.92 1.34492 201.956 2.06667 204.146 3.51018V10.6406C203.051 9.81929 201.819 9.22198 200.45 8.84866C199.082 8.47534 197.501 8.28868 195.709 8.28868C193.37 8.28868 191.59 8.87355 190.371 10.0433C189.176 11.213 188.579 12.8556 188.579 14.9711C188.579 17.1861 189.151 18.8661 190.296 20.0109C191.466 21.1309 193.146 21.6909 195.336 21.6909C196.406 21.6909 197.277 21.5416 197.949 21.2429V17.9203H194.365V13.0298H205.005V26.0961C202.367 27.7387 199.044 28.56 195.037 28.56Z" fill="#C6F806"/>
<path d="M209.93 6.8731C209.352 6.8731 208.819 6.74277 208.332 6.48211C207.845 6.22146 207.459 5.85597 207.176 5.38565C206.893 4.91533 206.751 4.37985 206.751 3.77921C206.751 3.17289 206.893 2.63458 207.176 2.16426C207.459 1.69395 207.845 1.32846 208.332 1.0678C208.819 0.807142 209.352 0.676813 209.93 0.676813C210.508 0.676813 211.041 0.807142 211.528 1.0678C212.015 1.32846 212.401 1.69395 212.684 2.16426C212.967 2.63458 213.109 3.17289 213.109 3.77921C213.109 4.37985 212.967 4.91533 212.684 5.38565C212.401 5.85597 212.015 6.22146 211.528 6.48211C211.041 6.74277 210.508 6.8731 209.93 6.8731ZM209.93 5.87864C210.338 5.87864 210.701 5.7993 211.018 5.64064C211.335 5.47632 211.582 5.23549 211.757 4.91817C211.939 4.60085 212.029 4.22119 212.029 3.77921C212.029 3.33722 211.939 2.9604 211.757 2.64875C211.582 2.33142 211.335 2.09343 211.018 1.93477C210.706 1.77044 210.344 1.68828 209.93 1.68828C209.516 1.68828 209.151 1.77044 208.833 1.93477C208.522 2.09343 208.275 2.33142 208.094 2.64875C207.918 2.9604 207.831 3.33722 207.831 3.77921C207.831 4.22119 207.918 4.60085 208.094 4.91817C208.275 5.23549 208.525 5.47632 208.842 5.64064C209.159 5.7993 209.522 5.87864 209.93 5.87864ZM208.612 2.13876H210.142C210.533 2.13876 210.842 2.23793 211.069 2.43625C211.301 2.63458 211.417 2.92074 211.417 3.29472C211.417 3.53838 211.369 3.74804 211.273 3.9237C211.177 4.0937 211.038 4.22403 210.856 4.31469L211.349 5.33465H210.329L209.904 4.45918H209.641V5.33465H208.612V2.13876ZM209.981 3.64321C210.259 3.64321 210.397 3.52705 210.397 3.29472C210.397 3.06806 210.259 2.95474 209.981 2.95474H209.641V3.64321H209.981Z" fill="white"/>
</svg>
